#!OML:ASF H:\Male1\Project 1\Capture day 1\Session 1\Male1.ASF
:FULLY-SPECIFIED
:DEGREES
353
root 33.163 14.8949 -0.792984 714.386 -87.2788 371.526
lowerback 13.5508 0.193678 -3.63325
upperback 7.44564 -0.513953 1.27034
thorax 0.282295 -0.545178 3.44074
lowerneck -13.4639 3.00297 7.83898
upperneck -0.817053 2.90666 -7.20691
head 2.13342 1.14957 -3.29157
rclavicle -6.80837e-015 2.3059e-014
rhumerus -65.8964 5.68813 -87.2599
rradius 89.8368
rwrist -25.1141
rhand -32.6443 18.7215
rfingers 7.12502
rthumb -5.87085 -11.1771
lclavicle -6.80837e-015 2.3059e-014
lhumerus -29.7542 -20.7846 90.0575
lradius 125.549
lwrist 9.76217
lhand -31.0743 -9.8773
lfingers 7.12502
lthumb -4.35487 20.0579
rfemur -38.3873 8.72408 19.7703
rtibia 46.7691
rfoot -24.1462 -20.057
rtoes -32.7144
lfemur 12.0837 -8.4629 -26.4755
ltibia 46.8215
lfoot -0.868492 7.94093
ltoes -20.8898
354
root 32.6023 14.832 -0.858851 739.213 -86.6953 346.558
lowerback 13.8533 0.140577 -2.30451
upperback 7.49706 -0.442515 1.85031
thorax 0.158852 -0.486421 3.29059
lowerneck -13.8436 2.95592 7.69598
upperneck -1.028 2.82695 -7.47757
head 2.12717 1.08743 -3.35567
rclavicle 2.40529e-014 -7.7526e-015
rhumerus -63.6973 6.03121 -87.0508
rradius 88.206
rwrist -25.5266
rhand -32.8847 17.9044
rfingers 7.12502
rthumb -6.10285 -11.9877
lclavicle 2.40529e-014 -7.7526e-015
lhumerus -32.6584 -20.7271 91.6188
lradius 122.366
lwrist 10.7074
lhand -30.6802 -9.13361
lfingers 7.12502
lthumb -3.97431 20.8091
rfemur -36.513 8.7831 22.0576
rtibia 47.9918
rfoot -24.2607 -20.0057
rtoes -30.9887
lfemur 7.40022 -7.48879 -24.0182
ltibia 54.1485
lfoot -4.3953 9.57178
ltoes -20.4235
355
root 32.0466 14.7558 -0.92066 758.562 -85.696 327.135
lowerback 14.2142 0.136654 -0.751578
upperback 7.49729 -0.272292 2.4587
thorax -0.0508492 -0.373926 3.03005
lowerneck -14.1857 2.88387 7.57905
upperneck -1.21123 2.71378 -7.71676
head 2.12041 1.01084 -3.41685
rclavicle 5.96354e-015 -5.96354e-016
rhumerus -61.1306 6.6333 -86.9357
rradius 86.6244
rwrist -25.6675
rhand -33.2141 17.1782
rfingers 7.12502
rthumb -6.42091 -12.7045
lclavicle 5.96354e-015 -5.96354e-016
lhumerus -35.6587 -20.1847 93.1393
lradius 118.197
lwrist 11.916
lhand -29.8912 -8.04675
lfingers 7.12502
lthumb -3.2124 21.9088
rfemur -34.5949 8.57328 24.6533
rtibia 49.0598
rfoot -24.7054 -20.1899
rtoes -29.9439
lfemur 2.32377 -6.71709 -21.522
ltibia 61.0904
lfoot -7.46608 11.1076
ltoes -19.1964
356
root 31.4934 14.6731 -0.978442 771.688 -84.5086 313.993
lowerback 14.5957 0.193647 0.813297
upperback 7.45162 -0.00722991 3.01671
thorax -0.313064 -0.216431 2.696
lowerneck -14.4621 2.82547 7.51127
upperneck -1.36084 2.61795 -7.91815
head 2.11451 0.946351 -3.47369
rclavicle -3.18055e-015 -2.36554e-014
rhumerus -58.2569 7.53728 -86.9372
rradius 85.2867
rwrist -25.6066
rhand -33.5479 16.6824
rfingers 7.12502
rthumb -6.74315 -13.1903
lclavicle -3.18055e-015 -2.36554e-014
lhumerus -38.7039 -19.1428 94.4625
lradius 113.275
lwrist 13.1783
lhand -29.2841 -7.10873
lfingers 7.12502
lthumb -2.62609 22.8549
rfemur -32.6038 8.15652 27.2748
rtibia 49.8362
rfoot -25.4624 -20.4567
rtoes -29.6934
lfemur -3.03975 -6.11448 -19.2294
ltibia 67.444
lfoot -10.1401 12.4599
ltoes -17.5116
357
root 30.9412 14.5896 -1.03106 781.384 -83.3408 304.343
lowerback 14.9346 0.316418 2.26702
upperback 7.37085 0.344212 3.4774
thorax -0.578513 -0.0210632 2.30865
lowerneck -14.6412 2.80429 7.54654
upperneck -1.46675 2.56733 -8.13994
head 2.11182 0.906784 -3.55108
rclavicle -3.97569e-016 1.59028e-015
rhumerus -55.1645 8.78769 -87.0377
rradius 84.4032
rwrist -25.4169
rhand -33.8352 16.3983
rfingers 7.12502
rthumb -7.02048 -13.4653
lclavicle -3.97569e-016 1.59028e-015
lhumerus -41.8347 -17.6042 95.4728
lradius 108.005
lwrist 14.0701
lhand -29.3417 -6.36515
lfingers 7.12502
lthumb -2.68167 23.5977
rfemur -30.4639 7.55776 29.7701
rtibia 50.2348
rfoot -26.4703 -20.5631
rtoes -30.1718
lfemur -8.56383 -5.61928 -17.259
ltibia 73.0513
lfoot -12.5902 13.554
ltoes -15.3233
358
root 30.3881 14.5128 -1.0767 789.304 -82.3502 296.456
lowerback 15.2746 0.500429 3.50283
upperback 7.27721 0.760193 3.77724
thorax -0.845479 0.200448 1.86404
lowerneck -14.7112 2.80668 7.62821
upperneck -1.4828 2.55456 -8.2801
head 2.12092 0.893199 -3.60845
rclavicle -2.78299e-015 -2.10712e-014
rhumerus -51.9274 10.4118 -87.2266
rradius 84.0926
rwrist -25.1116
rhand -33.9924 16.3289
rfingers 7.12502
rthumb -7.17223 -13.5296
lclavicle -2.78299e-015 -2.10712e-014
lhumerus -45.1515 -15.6332 96.0584
lradius 102.931
lwrist 14.4864
lhand -30.0299 -5.83601
lfingers 7.12502
lthumb -3.3463 24.1175
rfemur -27.9807 6.85362 31.9603
rtibia 50.1727
rfoot -27.7881 -20.2561
rtoes -30.6368
lfemur -14.0967 -5.17508 -15.7466
ltibia 77.7513
lfoot -14.7355 14.5355
ltoes -13.5093
359
root 29.8314 14.4508 -1.11405 796.729 -81.619 289.017
lowerback 15.6304 0.745113 4.46142
upperback 7.17456 1.23096 3.87172
thorax -1.11836 0.444604 1.34831
lowerneck -14.6663 2.87089 7.80221
upperneck -1.44502 2.62287 -8.38624
head 2.13529 0.925307 -3.66521
rclavicle 1.78906e-014 4.13472e-014
rhumerus -48.7098 12.3913 -87.4603
rradius 84.4112
rwrist -24.6959
rhand -33.9571 16.4436
rfingers 7.12502
rthumb -7.13819 -13.416
lclavicle 1.78906e-014 4.13472e-014
lhumerus -48.7981 -13.3246 96.1535
lradius 98.6617
lwrist 14.5773
lhand -31.2512 -5.50707
lfingers 7.12502
lthumb -4.5257 24.4246
rfemur -25.0722 6.18727 33.7025
rtibia 49.5576
rfoot -29.1657 -19.6187
rtoes -31.0133
lfemur -19.4692 -4.7372 -14.7644
ltibia 81.3949
lfoot -16.5311 15.383
ltoes -11.663
360
root 29.2652 14.4128 -1.14338 804.059 -81.1307 281.59
lowerback 15.9934 1.04504 5.14004
upperback 7.0762 1.74365 3.74425
thorax -1.37867 0.707152 0.745599
lowerneck -14.5744 2.96057 7.97552
upperneck -1.3097 2.73275 -8.33032
head 2.17127 0.986745 -3.66868
rclavicle 4.67144e-015 5.96354e-015
rhumerus -45.635 14.5952 -87.6666
rradius 85.3342
rwrist -24.2231
rhand -33.7325 16.6134
rfingers 7.12502
rthumb -6.92136 -13.2534
lclavicle 4.67144e-015 5.96354e-015
lhumerus -52.8557 -10.9152 95.7572
lradius 95.6785
lwrist 14.5754
lhand -32.4716 -5.4233
lfingers 7.12502
lthumb -5.70407 24.4799
rfemur -21.6476 5.6287 34.9428
rtibia 48.2885
rfoot -30.2694 -18.8551
rtoes -31.5039
lfemur -24.5055 -4.33849 -14.3016
ltibia 83.8223
lfoot -17.9685 16.0859
ltoes -10.0406
361
root 28.6854 14.4061 -1.16507 811.599 -80.8034 273.91
lowerback 16.3151 1.40654 5.61139
upperback 6.96255 2.31113 3.40079
thorax -1.61754 0.997626 0.0186923
lowerneck -14.4851 3.02839 8.06227
upperneck -1.07586 2.82685 -8.03683
head 2.22915 1.05045 -3.58504
rclavicle -3.11098e-014 -6.89783e-014
rhumerus -42.9089 16.8381 -87.7932
rradius 86.8465
rwrist -23.8066
rhand -33.3035 16.7734
rfingers 7.12502
rthumb -6.50719 -13.1066
lclavicle -3.11098e-014 -6.89783e-014
lhumerus -57.3033 -8.67934 94.9311
lradius 94.1966
lwrist 14.6884
lhand -33.4048 -5.94173
lfingers 7.12502
lthumb -6.60499 23.9353
rfemur -17.7284 5.26912 35.7157
rtibia 46.2755
rfoot -30.854 -17.9933
rtoes -31.705
lfemur -29.1051 -3.97813 -14.2533
ltibia 84.9148
lfoot -19.0589 16.605
ltoes -8.83994
